<?xml version="1.0" standalone="no"?>
<!DOCTYPE svg PUBLIC "-//W3C//DTD SVG 20010904//EN"
 "http://www.w3.org/TR/2001/REC-SVG-20010904/DTD/svg10.dtd">
<svg version="1.0" xmlns="http://www.w3.org/2000/svg"
 width="256.000000pt" height="256.000000pt" viewBox="0 0 256.000000 256.000000"
 preserveAspectRatio="xMidYMid meet">
<metadata>
Created by potrace 1.14, written by Peter Selinger 2001-2017
</metadata>
<g transform="translate(0.000000,256.000000) scale(0.100000,-0.100000)"
fill="#000000" stroke="none">
<path d="M155 2499 c-51 -12 -96 -43 -126 -87 l-24 -36 0 -1096 0 -1096 24
-36 c31 -45 75 -74 131 -87 62 -14 2178 -14 2240 0 56 13 100 42 131 87 l24
36 0 1096 0 1096 -24 36 c-31 45 -75 74 -131 87 -58 14 -2188 13 -2245 0z
m514 -255 c229 -68 244 -406 22 -502 -47 -20 -165 -20 -212 0 -218 95 -210
422 13 499 66 23 109 24 177 3z m1436 -13 c55 -25 104 -76 133 -140 44 -97 19
-222 -60 -298 -121 -116 -330 -91 -413 51 -65 111 -45 259 46 343 67 62 209
83 294 44z m-1439 -696 c213 -63 259 -352 75 -476 -160 -107 -374 -20 -414
167 -42 200 142 368 339 309z m1403 -1 c63 -18 136 -81 162 -139 13 -27 19
-64 19 -115 0 -93 -20 -139 -83 -197 -47 -43 -121 -73 -182 -73 -91 0 -195 62
-238 144 -17 33 -22 58 -22 126 0 101 20 147 87 204 72 62 160 79 257 50z
m-1350 -711 c84 -40 139 -129 140 -229 3 -163 -134 -288 -296 -271 -221 23
-318 297 -162 455 83 84 202 101 318 45z m1380 12 c124 -43 194 -169 169 -304
-14 -80 -56 -138 -133 -186 -43 -27 -171 -33 -230 -11 -53 21 -113 77 -140
131 -29 58 -28 185 2 240 63 119 206 175 332 130z"/>
</g>
</svg>
